PathFileType	4	(X/Y/Z)	D:\Long Term Storage\D'Arcy Smith\Coord7.trc
DataRate	CameraRate	NumFrames	NumMarkers	Units	OrigDataRate	OrigDataStartFrame	OrigNumFrames
120.00	120.00	      112	4	mm	120.00	608	      4859
Frame#	Time	M1			M2			M3			M4			
		X1	Y1	Z1	X2	Y2	Z2	X3	Y3	Z3	X4	Y4	Z4	

608	5.058	1057.64844	304.00244	468.94910	1597.58887	302.98373	486.77890							
609	5.067	1056.86853	303.54428	479.79681	1594.96277	303.13992	466.98709							
610	5.075	1056.00903	302.54980	493.36627	1592.28406	304.36502	447.42474							
611	5.083	1055.01184	303.93323	500.91718	1589.46558	306.56561	427.65656							
612	5.092	1054.51953	305.27539	510.29639	1586.92090	309.34726	409.48358							
613	5.100	1053.88086	306.70483	519.05219	1584.40637	312.73846	390.99796							
614	5.108	1053.46960	308.14182	526.45135	1581.75781	317.31519	372.95499							
615	5.117	1053.24646	309.82794	535.47089	1579.57092	322.20001	356.16473							
616	5.125	1052.91309	311.67795	541.95538	1577.33789	327.36450	340.59821							
617	5.133	1052.87659	313.44653	546.96753	1575.48267	332.85733	325.85388							
618	5.142	1053.25854	315.07089	552.33081	1573.68799	338.38818	312.68283							
619	5.150	1053.90845	316.34076	555.31396	1572.07410	344.06113	301.05038							
620	5.158	1054.82166	317.66974	559.05524	1570.77368	349.61261	290.26117							
621	5.167	1055.88208	318.51407	561.40045	1569.61926	354.82205	281.38611							
622	5.175	1057.58411	318.96118	563.91754	1568.84485	359.74323	274.01013							
623	5.183	1059.28772	319.26382	565.52557	1568.35596	364.05878	267.63040							
624	5.192	1061.41357	319.55371	566.73029	1568.26758	367.74667	263.14227							
625	5.200	1063.55127	319.62744	567.55200	1568.43713	370.45535	259.87134							
626	5.208	1065.84326	319.77911	568.41998	1568.96777	372.45743	257.82492							
627	5.217	1068.40771	319.92453	568.24878	1569.74622	373.67361	256.95389							
628	5.225	1071.48828	320.66324	566.33618	1570.67090	373.95294	257.22995							
629	5.233	1074.36743	320.98511	565.40399	1571.81372	373.36972	258.50415							
630	5.242	1077.30798	321.08417	564.55457	1573.07483	372.03662	260.55304							
631	5.250	1080.27454	321.46811	562.96613	1574.72998	369.85864	263.55609							
632	5.258	1083.03601	321.92670	561.10944	1576.26624	366.88666	267.44318							
633	5.267	1085.98926	322.74249	558.28906	1578.02551	363.38510	272.15897							
634	5.275	1088.96777	323.60507	556.04932	1579.84180	359.03677	277.39825							
635	5.283	1091.95850	324.40561	553.75824	1581.62109	354.22589	283.98004							
636	5.292	1094.82373	325.62708	550.06476	1583.42847	348.97897	291.44101							
637	5.300	1097.56628	326.93237	546.01306	1585.24048	343.31320	299.36954							
638	5.308	1100.39661	328.00833	542.09924	1587.19531	337.39554	308.65424							
639	5.317	1102.92407	329.28201	537.06702	1589.21155	331.19064	318.57159							
640	5.325	1105.53601	330.18887	532.05780	1591.19043	325.41711	329.34479							
641	5.333	1107.72791	331.33368	525.32471	1593.02527	318.99698	341.36554							
642	5.342	1109.81433	332.26028	518.34583	1594.97156	312.88470	354.36020							
643	5.350	1111.85107	333.33899	511.15982	1597.23364	307.40976	367.66931							
644	5.358	1113.41260	334.72394	500.94345	1599.24866	301.94836	382.12558							
645	5.367	1114.73584	335.68359	492.09558	1600.89856	296.98413	397.24655							
646	5.375	1116.38550	337.00049	482.99185	1602.97021	292.76852	412.39163							
647	5.383	1117.82898	337.86343	474.71262	1604.51025	289.18408	428.67361							
648	5.392	1118.84558	339.87531	462.98575	1606.53735	286.23978	445.50827							
649	5.400	1119.99890	341.40588	453.92307	1608.15161	283.95901	465.69412							
650	5.408	1120.77808	343.24121	442.43530	1609.54492	281.96378	481.73352							
651	5.417	1121.51099	345.23816	431.26617	1610.84155	281.30087	499.56531							
652	5.425	1122.42590	347.53122	419.63098	1612.10938	281.33347	517.57123							
653	5.433	1122.87720	349.62857	408.39468	1613.18823	282.58145	535.70093							
654	5.442	1123.29980	352.68591	396.23383	1613.99744	284.36877	553.59198							
655	5.450	1123.55371	355.56555	384.46164	1614.53491	287.39801	571.05188							
656	5.458	1123.65747	358.12173	372.52271	1614.79785	291.19702	587.64417							
657	5.467	1123.76624	361.06348	362.72891	1614.95752	295.92789	603.70190							
658	5.475	1123.67029	364.55841	352.04663	1614.77747	301.62848	618.63995							
659	5.483	1123.21802	368.07712	342.12442	1614.73645	307.99268	632.24457							
660	5.492	1122.71167	371.65460	332.87375	1613.96204	314.51697	646.26849							
661	5.500	1122.08215	375.24960	324.10645	1613.66248	321.77945	658.59821							
662	5.508	1121.31921	378.78024	316.03470	1613.23425	329.48764	669.63782							
663	5.517	1120.32251	382.26230	308.55969	1612.79150	337.27548	680.12109							
664	5.525	1119.24841	385.41943	301.86255	1612.59302	345.06247	690.14862							
665	5.533	1117.86609	388.58447	295.25162	1612.98413	352.67783	697.67120							
666	5.542	1116.69348	390.79080	289.29855	1612.96570	359.96469	705.98663							
667	5.550	1115.41016	393.06787	286.39709	1613.05688	366.87375	713.69183							
668	5.558	1113.95093	394.58191	283.08130	1613.20642	373.45395	720.39417							
669	5.567	1112.54797	395.38550	280.85428	1613.67896	379.36551	726.89838							
670	5.575	1111.16638	395.47598	279.70038	1614.01086	384.82813	732.51343							
671	5.583	1109.79797	394.66260	280.17780	1614.82642	389.73456	737.50305							
672	5.592	1108.44543	393.20267	281.49353	1615.38489	394.78992	741.68127							
673	5.600	1107.36401	391.14420	283.86362	1615.96228	398.36469	745.86938							
674	5.608	1106.25586	388.21246	287.79800	1616.55164	401.25885	748.59155							
675	5.617	1105.30627	384.55103	292.69440	1617.33655	403.30865	750.35754							
676	5.625	1104.75232	380.46558	298.36697	1618.27808	404.75690	751.38574							
677	5.633	1104.21021	375.71082	305.27393	1619.25256	405.57669	751.58960							
678	5.642	1104.00427	370.84604	312.73715	1620.13745	405.57581	750.47162							
679	5.650	1103.92200	365.33041	321.09933	1621.24622	404.85971	748.56433							
680	5.658	1103.70532	359.78510	329.97864	1622.20581	403.34689	745.67157							
681	5.667	1103.88733	354.13895	339.16528	1623.18628	400.70074	741.55682							
682	5.675	1104.15454	348.39996	348.92505	1624.31128	397.11816	736.23114							
683	5.683	1104.03589	342.58856	359.36871	1625.16663	392.53329	730.00519							
684	5.692	1104.23706	336.81763	369.66394	1625.94507	387.30499	723.16577							
685	5.700	1104.25000	331.16727	380.89856	1627.00415	381.21088	713.90851							
686	5.708	1104.05969	325.81812	391.28265	1627.79736	374.57422	704.47949							
687	5.717	1103.83362	321.10065	403.70917	1628.36243	367.60272	693.85809							
688	5.725	1103.60327	316.29514	415.47021	1629.20801	361.06750	681.92706							
689	5.733	1103.13440	311.95102	427.74451	1629.36023	354.05573	669.95038							
690	5.742	1102.55591	308.44485	439.35477	1629.57935	347.10550	656.34412							
691	5.750	1101.60718	305.76874	450.84589	1629.52478	340.37668	642.32910							
692	5.758	1100.73486	303.56854	462.94202	1629.32129	334.32538	627.46674							
693	5.767	1099.43433	301.98782	474.77792	1628.91809	328.57626	612.14490							
694	5.775	1097.98560	301.18097	486.27246	1628.16980	323.62842	595.88214							
695	5.783	1096.27051	300.69897	497.63550	1627.32800	319.23615	579.39966							
696	5.792	1094.29871	300.93994	508.50378	1626.29858	314.95990	562.46149							
697	5.800	1092.41711	301.61673	518.62195	1624.88745	312.61966	545.03583							
698	5.808	1090.36646	302.85678	528.61560	1623.27905	310.47775	526.74390							
699	5.817	1087.99060	304.28339	536.71991	1621.50574	309.28497	509.04947							
700	5.825	1085.98535	305.55786	545.96375	1619.45374	309.20084	490.91000							
701	5.833	1084.21326	307.24451	555.24756	1617.34558	309.77905	472.44748							
702	5.842	1082.17334	308.79465	562.52289	1615.04163	311.25079	454.35532							
703	5.850	1080.20825	310.18277	569.60486	1612.64685	313.83688	437.51099							
704	5.858	1078.49902	311.52789	575.88690	1609.71399	317.45694	419.36444							
705	5.867	1076.78186	312.71216	582.05853	1606.41248	321.61462	402.20557							
706	5.875	1075.22327	313.90558	588.20721	1603.96240	326.44196	386.02274							
707	5.883	1073.77893	314.46310	595.09338	1600.92065	331.90210	370.27405							
708	5.892	1072.54504	315.47754	599.98505	1598.28186	338.15494	354.89148							
709	5.900	1071.43323	316.41608	604.87390	1595.87280	344.62387	340.25714							
710	5.908	1070.39514	317.78851	609.19342	1593.68701	351.56464	326.73135							
711	5.917	1069.36658	318.90427	612.92877	1591.27515	357.92535	313.84766							
712	5.925	1068.19238	320.36691	616.18811	1588.95557	365.02954	301.71216							
713	5.933	1067.07739	321.89929	618.83356	1587.01294	371.90182	290.99069							
714	5.942	1066.21436	323.39999	621.16595	1584.93433	378.56824	280.55206							
715	5.950	1065.38086	324.71597	622.71783	1583.16895	385.02725	271.56018							
716	5.958	1064.67542	326.05124	624.51697	1581.57703	391.18216	263.26498							
717	5.967	1064.03760	327.05893	625.61676	1579.70508	396.42334	254.84370							
718	5.975	1063.47009	327.92563	625.72845	1578.46484	401.12555	249.13892							
719	5.983	1063.09180	328.63504	625.58142	1577.36816	405.33249	243.47331							
